<?xml version="1.0" standalone="no"?>
<!DOCTYPE svg PUBLIC "-//W3C//DTD SVG 20010904//EN"
 "http://www.w3.org/TR/2001/REC-SVG-20010904/DTD/svg10.dtd">
<svg version="1.0" xmlns="http://www.w3.org/2000/svg" 
 width="215.000000pt" height="235.000000pt" viewBox="0 0 215.000000 235.000000"
 preserveAspectRatio="xMidYMid meet">
<metadata>
Created by potrace 1.10, written by Peter Selinger 2001-2011
</metadata>
<g transform="translate(0.000000,235.000000) scale(0.100000,-0.100000)"
fill="#000000" stroke="none">
<path d="M700 2325 c-58 -7 -160 -23 -227 -36 l-123 -24 0 -35 c0 -20 -7 -61
-16 -91 -32 -107 -130 -169 -268 -169 l-61 0 7 -232 c26 -948 343 -1575 862
-1708 99 -25 272 -27 384 -4 89 18 222 69 300 116 76 46 220 189 280 279 79
118 164 315 201 464 68 278 91 463 99 801 l7 272 -70 6 c-100 9 -161 32 -204
77 -41 41 -71 118 -71 179 l0 38 -107 26 c-182 43 -330 56 -623 55 -146 -1
-312 -7 -370 -14z m805 -49 c61 -9 142 -24 180 -34 62 -15 70 -20 73 -42 6
-61 38 -143 68 -179 42 -49 102 -77 199 -93 l77 -13 -1 -160 c-1 -88 -4 -182
-6 -210 -3 -27 -10 -106 -16 -175 -21 -242 -89 -539 -164 -714 -168 -390 -471
-606 -850 -606 -334 0 -609 207 -790 595 -130 277 -219 729 -226 1145 l-2 135
59 6 c169 16 263 99 281 248 6 50 6 50 52 60 84 18 177 32 292 46 161 19 627
14 774 -9z"/>
<path d="M840 2254 c-93 -9 -278 -36 -346 -51 l-72 -16 -12 -61 c-28 -144 -93
-201 -245 -215 l-70 -6 -3 -75 c-5 -113 16 -377 44 -540 120 -716 415 -1123
863 -1191 204 -31 453 57 623 219 144 138 248 323 320 567 70 239 106 492 115
801 l6 211 -63 6 c-87 10 -133 25 -175 59 -44 37 -73 93 -82 155 -3 27 -10 53
-15 60 -10 12 -100 34 -248 59 -92 15 -533 28 -640 18z m570 -25 c47 -5 135
-20 195 -32 l110 -22 12 -63 c15 -74 31 -107 70 -146 40 -41 103 -66 183 -73
l70 -6 0 -36 c0 -20 -5 -124 -10 -231 -42 -869 -311 -1375 -794 -1490 -303
-73 -608 62 -814 363 -181 261 -304 726 -320 1203 l-7 192 77 11 c92 13 145
37 186 87 29 34 62 127 62 171 0 18 11 23 88 37 293 53 622 66 892 35z"/>
<path d="M526 2125 c-21 -22 -10 -43 28 -53 17 -5 31 -15 31 -22 0 -22 -37
-25 -52 -4 -14 20 -29 13 -20 -10 10 -27 56 -31 79 -8 25 24 17 39 -29 58 -18
8 -31 19 -28 24 9 14 43 12 48 -2 2 -7 8 -10 12 -6 11 11 -14 38 -36 38 -9 0
-24 -7 -33 -15z"/>
<path d="M629 2138 c-1 -11 -1 -115 2 -123 1 -5 5 13 8 40 l6 50 14 -40 c20
-59 28 -62 42 -16 14 48 25 45 20 -5 -1 -19 2 -34 8 -34 7 0 11 25 11 66 0 76
-15 83 -38 15 -16 -47 -22 -46 -37 7 -6 19 -16 37 -23 40 -6 2 -12 2 -13 0z"/>
<path d="M760 2075 c0 -37 4 -65 10 -65 6 0 10 11 10 24 0 29 19 45 31 25 19
-34 38 -53 45 -47 4 4 -5 23 -20 42 l-26 35 25 19 c26 21 32 32 16 32 -6 0
-24 -15 -40 -32 l-31 -33 0 33 c0 17 -4 32 -10 32 -6 0 -10 -28 -10 -65z"/>
<path d="M920 2075 c0 -37 4 -65 10 -65 6 0 10 21 10 48 l0 47 29 -43 c16 -24
32 -44 36 -45 4 -1 7 23 7 53 0 76 -4 84 -11 25 l-6 -50 -28 48 c-15 26 -32
47 -37 47 -6 0 -10 -29 -10 -65z"/>
<path d="M1040 2075 l0 -65 45 0 c25 0 45 5 45 10 0 6 -16 10 -35 10 -28 0
-35 4 -35 20 0 16 7 20 30 20 17 0 30 5 30 10 0 6 -13 10 -30 10 -20 0 -30 5
-30 15 0 10 11 15 35 15 19 0 35 5 35 10 0 6 -20 10 -45 10 l-45 0 0 -65z"/>
<path d="M1167 2122 c-10 -10 -17 -33 -17 -50 0 -66 101 -84 108 -19 3 24 0
27 -27 27 -17 0 -31 -4 -31 -10 0 -5 9 -10 20 -10 11 0 20 -4 20 -9 0 -30 -65
-23 -75 9 -9 28 12 60 40 60 13 0 27 -4 30 -10 3 -5 11 -10 17 -10 6 0 3 9 -7
20 -23 25 -57 26 -78 2z"/>
<path d="M1280 2075 l0 -65 45 0 c25 0 45 5 45 10 0 6 -16 10 -35 10 -28 0
-35 4 -35 20 0 16 7 20 30 20 17 0 30 5 30 10 0 6 -13 10 -30 10 -20 0 -30 5
-30 15 0 10 11 15 35 15 19 0 35 5 35 10 0 6 -20 10 -45 10 l-45 0 0 -65z"/>
<path d="M1390 2075 c0 -37 4 -65 10 -65 6 0 10 14 10 30 0 39 22 39 50 -1 25
-34 41 -32 18 3 -13 20 -13 26 -1 44 12 19 12 24 -2 38 -9 9 -32 16 -51 16
l-34 0 0 -65z m76 34 c8 -13 -13 -29 -38 -29 -11 0 -18 8 -18 20 0 15 7 20 24
20 14 0 28 -5 32 -11z"/>
<path d="M1510 2075 c0 -37 4 -65 10 -65 6 0 10 28 10 65 0 37 -4 65 -10 65
-6 0 -10 -28 -10 -65z"/>
<path d="M1623 2121 c-26 -22 -30 -36 -8 -27 12 4 15 -4 15 -39 0 -25 5 -45
10 -45 6 0 10 28 10 65 0 36 -1 65 -2 65 -2 -1 -13 -9 -25 -19z"/>
<path d="M925 1866 c-20 -15 -17 -45 7 -60 24 -15 53 13 44 42 -9 26 -30 34
-51 18z m40 -26 c0 -22 -39 -19 -43 3 -3 15 1 18 20 15 12 -2 23 -10 23 -18z"/>
<path d="M997 1873 c-24 -24 9 -69 43 -58 27 9 26 35 -2 35 -17 0 -19 -3 -9
-9 8 -5 9 -11 3 -15 -13 -8 -35 20 -27 34 4 7 16 10 26 7 11 -3 19 -1 19 4 0
10 -43 12 -53 2z"/>
<path d="M1158 1850 c-3 -16 -1 -30 4 -30 4 0 8 8 8 18 0 14 4 12 19 -8 l19
-25 7 28 c4 15 5 31 1 34 -3 4 -6 -1 -6 -10 0 -24 -17 -21 -23 3 -8 30 -24 24
-29 -10z"/>
<path d="M1239 1843 c-5 -14 -8 -31 -5 -37 3 -7 5 -6 5 2 1 6 11 13 24 13 16
1 18 2 5 6 -10 2 -18 9 -18 15 0 6 9 8 20 5 11 -3 20 -2 20 3 0 4 -9 10 -21
13 -15 4 -23 -1 -30 -20z"/>
<path d="M840 1845 c0 -4 7 -19 15 -35 11 -21 20 -27 35 -23 11 3 17 9 15 14
-3 4 -12 6 -19 3 -8 -3 -16 5 -20 20 -5 22 -26 38 -26 21z"/>
<path d="M1301 1826 c-22 -27 -9 -51 27 -50 18 1 32 -3 32 -8 0 -6 5 -6 14 1
11 10 16 6 24 -16 6 -15 11 -21 11 -12 1 9 8 22 17 30 14 11 13 15 -7 30 -22
17 -24 16 -39 -4 -15 -22 -15 -22 -20 8 -6 34 -39 46 -59 21z m49 -20 c0 -8
-5 -18 -10 -21 -17 -11 -40 3 -34 20 8 19 44 20 44 1z"/>
<path d="M781 1816 c-28 -33 27 -74 57 -44 16 16 15 23 -4 42 -19 20 -38 20
-53 2z m49 -21 c0 -19 -20 -29 -32 -17 -15 15 -2 43 17 36 8 -3 15 -12 15 -19z"/>
<path d="M740 1795 c0 -6 6 -17 13 -24 12 -14 6 -13 -40 6 -20 8 -15 -12 8
-38 l20 -24 -12 24 c-12 26 -14 25 36 5 8 -3 15 -2 15 2 -1 13 -40 61 -40 49z"/>
<path d="M1437 1752 c-21 -23 -22 -39 -2 -22 8 7 15 9 15 4 0 -11 20 18 20 29
0 13 -16 7 -33 -11z"/>
<path d="M671 1743 c-1 -17 -5 -21 -18 -16 -14 5 -12 0 6 -20 28 -31 33 -33
24 -11 -5 14 -2 16 21 10 18 -4 25 -3 21 4 -3 5 -15 10 -25 10 -11 0 -20 9
-23 23 l-4 22 -2 -22z"/>
<path d="M1468 1727 c-16 -6 -28 -15 -28 -19 0 -5 10 -3 23 3 20 11 21 11 9
-4 -15 -18 -7 -41 13 -33 17 6 35 -13 28 -33 -3 -9 4 -2 16 14 11 17 21 34 21
39 0 8 -27 4 -67 -11 -15 -5 -15 -3 5 19 35 39 30 45 -20 25z"/>
<path d="M988 1700 c-166 -35 -254 -94 -312 -212 -21 -41 -36 -86 -36 -106 0
-20 -10 -63 -21 -96 -24 -67 -22 -153 6 -206 8 -16 15 -55 15 -89 0 -50 -3
-59 -15 -55 -20 8 -20 -25 0 -73 8 -19 15 -65 15 -102 l0 -66 435 0 435 0 0
63 c0 35 6 75 14 90 7 15 16 39 20 55 5 23 3 27 -14 27 -31 0 -28 83 5 142 35
63 38 153 6 228 -13 30 -27 76 -31 102 -27 149 -164 267 -346 297 -32 5 -66
12 -74 14 -8 3 -54 -3 -102 -13z m102 -25 c7 -18 17 -25 36 -25 l26 0 -22 -18
c-20 -16 -21 -21 -10 -42 l13 -24 -27 17 c-24 16 -28 16 -52 1 -25 -17 -25
-17 -18 10 5 20 2 31 -12 41 -18 14 -17 14 8 15 21 0 29 6 34 25 3 14 8 25 10
25 3 0 9 -11 14 -25z m-35 3 c-3 -7 -20 -13 -38 -12 -17 0 -39 -5 -47 -12 -8
-6 -31 -17 -50 -23 -54 -17 -132 -82 -160 -132 -14 -25 -37 -60 -52 -78 -16
-18 -28 -37 -28 -42 0 -5 -4 -9 -10 -9 -20 0 -10 58 21 118 46 92 128 155 247
187 63 18 123 19 117 3z m150 -3 c82 -22 170 -71 212 -119 41 -48 83 -133 83
-167 0 -23 -1 -22 -20 9 -11 17 -24 32 -29 32 -5 0 -21 19 -34 43 -37 62 -101
121 -161 147 -28 12 -63 29 -79 37 -15 8 -37 13 -49 11 -11 -2 -23 3 -25 10
-6 16 29 15 102 -3z m-191 -50 c24 -18 14 -31 -28 -39 -19 -4 -58 -22 -87 -41
-28 -19 -57 -35 -63 -35 -7 0 -29 -16 -49 -37 -40 -39 -45 -38 -23 5 30 56
119 123 206 155 22 8 23 8 44 -8z m286 -49 c34 -22 94 -88 115 -126 5 -8 -10
2 -33 23 -23 20 -48 37 -55 37 -6 0 -32 14 -56 30 -24 17 -63 35 -85 42 -55
15 -65 26 -42 43 16 12 25 11 69 -5 27 -11 66 -30 87 -44z m-283 -26 c3 0 18
8 33 17 27 15 30 15 54 0 32 -21 50 -22 42 -1 -5 12 -1 14 17 9 92 -27 158
-86 177 -156 18 -67 8 -86 -65 -119 -37 -17 -71 -40 -81 -55 -18 -27 -17 -29
11 -81 37 -69 29 -95 -44 -146 -30 -21 -56 -36 -59 -34 -2 3 1 33 7 68 41 239
49 446 18 435 -7 -2 -22 7 -34 20 -27 29 -33 29 -33 1 0 -17 -3 -19 -12 -10
-18 18 -27 15 -21 -8 4 -16 2 -19 -12 -13 -19 7 -19 -1 -1 -152 9 -78 37 -272
42 -290 3 -11 8 -28 11 -38 4 -17 3 -17 -25 -3 -45 23 -93 66 -103 93 -7 19
-3 34 16 67 44 75 30 111 -55 141 -60 21 -80 42 -80 82 0 39 30 102 63 134 12
12 45 32 72 44 40 18 51 20 53 9 2 -8 6 -14 9 -14z m-188 -87 c-10 -21 -21
-55 -24 -75 -6 -33 -3 -41 22 -67 16 -16 47 -34 67 -40 44 -12 76 -37 76 -60
0 -9 -11 -34 -25 -56 -13 -22 -25 -50 -25 -62 0 -32 49 -83 111 -117 l54 -28
62 36 c66 39 103 77 103 108 0 10 -11 36 -25 56 -44 64 -29 97 55 127 24 9 52
23 62 32 24 22 23 88 -2 138 -11 21 -18 40 -16 43 11 10 84 -72 94 -106 23
-77 8 -123 -49 -153 -28 -15 -30 -18 -13 -19 33 0 72 37 85 80 9 31 9 47 -4
84 -15 45 -15 46 3 36 32 -17 42 -49 38 -116 -3 -53 -9 -69 -32 -93 -16 -17
-42 -33 -57 -36 -16 -4 -29 -11 -29 -16 0 -12 30 -4 73 18 36 18 70 92 65 139
-5 40 4 44 20 9 18 -39 14 -76 -11 -117 -30 -50 -70 -79 -118 -85 -29 -4 -37
-8 -27 -14 20 -11 79 6 113 33 15 12 38 43 50 70 22 47 23 48 28 21 8 -40 -24
-105 -69 -139 -30 -24 -47 -29 -91 -29 -56 0 -70 -10 -27 -21 39 -10 94 11
144 53 l44 38 -24 -44 c-42 -75 -65 -86 -188 -87 -95 -1 -116 -4 -185 -32
l-78 -30 -72 31 c-65 28 -82 31 -179 31 -118 1 -141 10 -185 76 -34 50 -28 57
16 17 45 -41 106 -63 146 -53 38 10 22 21 -25 17 -45 -3 -72 9 -117 52 -38 36
-58 87 -48 125 7 27 7 27 20 -12 18 -50 58 -92 111 -112 31 -12 47 -13 61 -5
15 9 13 10 -15 11 -74 0 -142 67 -149 148 -3 33 0 53 11 67 15 19 15 18 16
-25 0 -78 45 -139 113 -154 15 -4 27 -2 27 3 0 4 -14 11 -30 15 -87 17 -129
165 -67 234 30 33 38 27 20 -15 -18 -45 -12 -106 14 -135 22 -25 73 -52 73
-39 0 5 -9 12 -20 16 -79 25 -79 161 1 236 42 39 50 37 28 -8z m266 -13 l14
25 1 -30 c0 -23 3 -27 10 -15 7 11 10 4 10 -25 0 -23 -5 -46 -12 -53 -17 -17
-64 -15 -82 4 -17 17 -23 79 -6 69 6 -4 11 8 11 27 2 30 2 31 6 6 6 -39 23
-35 25 5 l1 32 4 -35 5 -35 13 25z m33 -139 c-4 -20 -58 -27 -88 -11 -35 19
-22 30 35 29 46 -1 55 -5 53 -18z m-66 -103 l2 -73 3 73 c2 39 8 72 13 72 13
0 11 -43 -4 -150 l-12 -85 -7 55 c-18 148 -19 180 -8 180 7 0 12 -26 13 -72z
m53 -10 c-4 -46 -11 -103 -15 -128 l-8 -45 -1 51 c-2 82 11 204 22 204 5 0 6
-32 2 -82z m-408 -223 c-2 -22 -15 -35 -34 -35 -9 0 -13 16 -13 45 l0 46 24
-18 c14 -10 24 -27 23 -38z m789 -11 c-4 -13 -13 -24 -21 -24 -22 0 -20 56 3
69 20 12 27 -6 18 -45z m-717 20 c19 -6 3 -20 -31 -28 -25 -6 -28 -3 -28 18 0
24 8 26 59 10z m661 -14 c0 -22 -3 -23 -37 -14 -34 9 -29 34 7 34 23 0 30 -4
30 -20z m-432 -15 c47 -14 70 -30 60 -41 -3 -2 -25 3 -49 11 -61 22 -160 20
-256 -4 -45 -12 -93 -21 -107 -21 -43 0 -38 17 7 24 23 4 69 15 102 26 73 23
174 25 243 5z m392 -10 c46 -14 94 -25 108 -25 14 0 22 -5 19 -12 -5 -16 -37
-13 -139 13 -91 23 -187 24 -253 4 -27 -8 -51 -12 -54 -9 -18 18 93 52 175 53
37 1 92 -8 144 -24z m-388 -31 c48 -14 58 -20 58 -39 l0 -22 -57 20 c-70 24
-180 19 -288 -13 -65 -19 -71 -19 -82 -4 -13 17 -8 38 6 29 5 -2 50 6 102 20
113 28 183 31 261 9z m391 -11 c64 -15 117 -30 117 -33 0 -3 -4 -11 -9 -18 -6
-11 -23 -9 -87 8 -144 38 -227 37 -332 -7 -10 -4 -13 2 -10 18 2 19 14 27 58
41 78 24 129 22 263 -9z m-391 -46 c56 -15 72 -27 35 -27 -22 0 -28 -7 -42
-50 -9 -27 -20 -50 -24 -50 -4 0 -12 21 -17 48 l-9 47 -65 3 c-52 2 -67 0 -77
-14 -12 -16 -13 -14 -13 13 0 17 6 34 13 36 24 10 153 6 199 -6z m326 7 c12
-4 22 -13 22 -20 0 -10 -16 -14 -64 -14 l-63 0 -18 -47 c-26 -70 -32 -71 -46
-9 l-12 56 -40 0 c-50 0 -44 8 20 25 51 14 163 19 201 9z m-548 -53 c0 -71
-17 -111 -46 -111 -23 0 -24 3 -24 70 0 64 2 72 23 80 42 17 47 12 47 -39z
m650 -42 c0 -60 -2 -69 -18 -69 -22 0 -42 56 -42 118 l0 41 30 -10 c29 -11 30
-12 30 -80z m-754 53 c7 -4 13 -30 15 -59 4 -47 2 -52 -18 -56 -22 -4 -23 -1
-23 59 0 63 4 71 26 56z m814 -57 c0 -48 -2 -55 -20 -55 -18 0 -20 7 -20 55 0
48 2 55 20 55 18 0 20 -7 20 -55z m-349 -6 l19 -39 -84 0 -84 0 19 39 c20 41
35 49 82 43 20 -3 33 -15 48 -43z m-226 33 c9 -6 35 -56 35 -67 0 -3 -31 -5
-70 -5 -70 0 -70 0 -70 28 0 15 5 33 12 40 13 13 77 16 93 4z m419 -16 c3 -13
9 -31 12 -40 5 -14 -4 -16 -65 -16 -39 0 -71 3 -71 6 0 3 7 21 16 40 15 31 20
34 59 34 37 0 44 -3 49 -24z"/>
<path d="M599 1694 c-12 -14 -10 -19 15 -39 26 -21 30 -21 47 -7 10 9 16 18
14 20 -3 3 -11 -1 -20 -8 -20 -17 -32 -5 -15 15 15 18 -1 20 -18 3 -7 -7 -12
-8 -12 -2 0 6 5 15 12 22 8 8 8 12 1 12 -6 0 -17 -7 -24 -16z"/>
<path d="M557 1652 c-21 -23 -22 -36 -1 -28 8 3 26 -1 40 -10 13 -9 24 -12 24
-7 0 5 -11 15 -24 23 -14 7 -22 18 -19 26 7 19 -1 17 -20 -4z"/>
<path d="M1564 1635 c7 -29 -8 -33 -24 -7 -10 15 -10 15 -8 -3 2 -12 12 -21
26 -23 19 -3 21 -6 11 -18 -17 -20 -2 -17 32 6 l28 21 -21 24 c-29 33 -52 33
-44 0z"/>
<path d="M523 1563 c-18 -2 -33 -8 -33 -14 0 -5 4 -9 8 -9 5 0 17 -7 28 -15
18 -15 17 -15 -18 -13 -21 1 -39 -2 -40 -7 -4 -14 51 -13 70 1 16 12 15 14 -3
28 -19 15 -19 15 13 16 17 0 32 5 32 10 0 6 -6 9 -12 8 -7 0 -28 -3 -45 -5z"/>
<path d="M1617 1554 c-23 -12 -26 -18 -17 -34 21 -39 79 -13 65 30 -7 24 -11
24 -48 4z m43 -18 c0 -18 -31 -29 -44 -16 -8 8 -7 14 4 20 22 14 40 12 40 -4z"/>
<path d="M1633 1483 c12 -3 17 -13 15 -30 -2 -21 2 -28 26 -34 31 -9 46 -4 46
12 0 6 -15 7 -37 3 -38 -7 -38 -7 -20 14 14 15 15 21 5 26 -7 3 -3 3 10 0 12
-3 22 -1 22 5 0 6 -18 10 -42 10 -24 -1 -35 -3 -25 -6z"/>
<path d="M430 1422 c0 -4 14 -13 32 -20 25 -9 34 -9 40 1 13 20 9 30 -7 17
-12 -10 -21 -10 -40 -2 -14 7 -25 8 -25 4z"/>
<path d="M1671 1396 c-19 -23 -12 -25 34 -10 22 8 28 11 13 9 -14 -3 -28 0
-30 6 -2 7 -9 5 -17 -5z"/>
<path d="M428 1387 c14 -17 7 -41 -9 -32 -5 4 -9 1 -9 -4 0 -6 6 -11 13 -11 6
0 23 -3 37 -6 23 -5 24 -4 8 9 -26 21 -23 40 5 32 30 -8 1 10 -33 20 -22 7
-23 6 -12 -8z"/>
<path d="M1680 1340 c0 -5 7 -10 17 -10 14 0 14 -2 -2 -20 -10 -11 -14 -20 -9
-20 6 0 10 -12 9 -27 0 -23 5 -29 26 -31 34 -4 57 22 39 43 -7 8 -24 15 -37
15 -22 0 -24 2 -13 15 9 11 16 13 24 5 18 -18 30 -11 12 9 -13 15 -14 20 -4
24 7 3 -4 6 -24 6 -21 1 -38 -3 -38 -9z m70 -75 c0 -9 -7 -18 -16 -22 -18 -7
-39 11 -30 26 11 17 46 13 46 -4z"/>
<path d="M436 1305 c4 -8 2 -15 -4 -15 -6 0 -12 5 -14 12 -2 6 -11 9 -18 6
-10 -3 -4 -10 18 -22 25 -13 32 -23 30 -39 -3 -25 -24 -24 -21 1 1 14 -1 14
-13 -2 -14 -19 -14 -19 -14 3 0 12 -4 19 -10 16 -22 -14 -10 -43 21 -49 44 -9
52 0 45 50 -4 29 -2 44 7 47 7 3 2 6 -10 6 -16 1 -21 -3 -17 -14z"/>
<path d="M388 1188 c15 -15 16 -32 2 -23 -5 3 -10 1 -10 -4 0 -6 17 -11 38
-10 27 0 32 2 18 8 -18 7 -18 8 5 24 26 19 19 23 -11 7 -13 -7 -21 -7 -25 0
-3 5 -11 10 -18 10 -8 0 -8 -3 1 -12z"/>
<path d="M1711 1161 c-10 -6 -2 -9 23 -9 20 0 36 4 36 9 0 12 -41 11 -59 0z"/>
<path d="M1707 1133 c-4 -3 -7 -14 -7 -24 0 -19 20 -30 53 -28 17 1 14 4 -11
12 -39 12 -37 29 4 38 l29 7 -31 1 c-17 0 -34 -2 -37 -6z"/>
<path d="M410 1106 c0 -10 6 -13 15 -10 9 4 15 0 15 -9 0 -8 -6 -17 -13 -20
-21 -8 -41 9 -33 28 4 11 2 15 -6 13 -24 -8 -20 -37 6 -49 31 -15 59 3 54 35
-4 24 -38 35 -38 12z"/>
<path d="M1720 1061 l25 -7 -23 -13 c-13 -7 -22 -15 -19 -17 6 -6 67 29 67 39
0 4 -17 7 -37 6 -33 -1 -35 -2 -13 -8z"/>
<path d="M393 1013 c-23 -9 -13 -22 20 -26 l32 -3 -33 -13 c-38 -15 -33 -26
18 -36 26 -4 31 -3 20 4 -12 8 -13 14 -3 30 14 22 8 31 -19 31 -11 0 -16 5
-13 10 7 11 -2 12 -22 3z"/>
<path d="M1690 978 c0 -5 8 -8 18 -8 14 0 12 -4 -8 -20 -21 -17 -23 -21 -10
-30 12 -8 13 -13 2 -30 -12 -19 -11 -20 15 -14 54 13 61 22 26 34 -18 7 -33
16 -33 20 0 15 33 20 49 8 13 -10 14 -10 4 2 -18 19 -16 28 5 32 9 3 -2 6 -25
9 -24 2 -43 1 -43 -3z"/>
<path d="M400 905 c-19 -23 -4 -45 30 -45 18 0 33 6 36 15 8 19 -13 45 -36 45
-10 0 -23 -7 -30 -15z m49 -9 c10 -11 8 -16 -8 -21 -29 -9 -45 3 -30 21 15 18
23 18 38 0z"/>
<path d="M1667 846 c-3 -8 1 -20 10 -27 13 -11 17 -10 28 4 15 21 29 22 21 2
-3 -8 -1 -15 4 -15 13 0 13 37 0 45 -6 4 -20 -4 -31 -17 l-21 -23 5 23 c6 24
-8 31 -16 8z"/>
<path d="M433 823 c-17 -3 -23 -11 -23 -29 0 -23 2 -24 38 -18 46 8 45 8 37
33 -6 21 -10 22 -52 14z"/>
<path d="M690 640 l0 -30 390 0 390 0 0 30 0 30 -390 0 -390 0 0 -30z"/>
<path d="M760 556 l0 -24 325 0 325 0 0 24 0 24 -325 0 -325 0 0 -24z"/>
<path d="M680 424 c0 -37 3 -64 8 -60 4 4 7 17 7 29 0 31 18 30 37 -3 20 -34
53 -40 61 -10 3 12 14 20 25 20 12 0 23 -9 27 -20 5 -16 25 -30 25 -17 0 17
-49 121 -56 119 -5 -2 -15 -20 -22 -40 -24 -71 -22 -69 -47 -37 l-24 30 26 27
c20 21 23 28 11 28 -9 0 -23 -11 -32 -25 -20 -30 -40 -33 -33 -5 3 11 1 23 -4
26 -5 3 -9 -24 -9 -62z"/>
<path d="M880 425 c0 -65 0 -65 28 -65 36 0 62 28 62 67 0 36 -27 63 -63 63
-26 0 -27 -1 -27 -65z m59 31 c20 -24 10 -70 -16 -74 -21 -3 -23 1 -23 42 0
48 16 60 39 32z"/>
<path d="M990 425 c0 -37 4 -65 10 -65 6 0 10 28 10 65 0 37 -4 65 -10 65 -6
0 -10 -28 -10 -65z"/>
<path d="M1030 425 c0 -37 4 -65 10 -65 6 0 10 11 10 25 0 20 5 25 25 25 20 0
45 24 45 44 0 15 -35 36 -61 36 l-29 0 0 -65z m65 25 c0 -8 -10 -16 -22 -18
-18 -3 -23 2 -23 18 0 16 5 21 23 18 12 -2 22 -10 22 -18z"/>
<path d="M1145 474 c-3 -10 -14 -40 -25 -66 -14 -37 -15 -48 -5 -48 7 0 15 9
18 20 6 23 47 28 47 6 0 -16 18 -31 26 -23 6 5 -34 108 -46 121 -6 6 -12 2
-15 -10z"/>
<path d="M1200 480 c0 -5 7 -10 15 -10 12 0 15 -13 15 -56 0 -39 4 -54 12 -52
8 3 11 23 9 56 -2 47 0 52 18 52 12 0 21 5 21 10 0 6 -20 10 -45 10 -25 0 -45
-4 -45 -10z"/>
<path d="M1300 425 l0 -65 39 0 c22 0 43 5 46 10 4 6 -8 10 -29 10 -30 0 -36
4 -36 21 0 17 5 20 25 17 14 -3 28 -1 31 3 3 5 -9 9 -25 9 -24 0 -31 4 -31 20
0 16 7 20 30 20 17 0 30 5 30 10 0 6 -18 10 -40 10 l-40 0 0 -65z"/>
<path d="M1400 425 c0 -72 17 -90 22 -22 l3 42 23 -42 c12 -24 27 -43 32 -43
6 0 10 29 10 65 0 72 -17 90 -22 23 l-3 -43 -24 43 c-14 23 -28 42 -33 42 -4
0 -8 -29 -8 -65z"/>
</g>
</svg>
